HIERARCHY
ROOT Hips
{
	OFFSET 0.000000 100.481300 0.000000
	CHANNELS 6 Xposition Yposition Zposition Xrotation Yrotation Zrotation
	JOINT Spine
	{
		OFFSET -0.279200 12.230698 -2.892100
		CHANNELS 3 Xrotation Yrotation Zrotation
		JOINT Spine1
		{
			OFFSET -0.325700 14.269203 -3.374200
			CHANNELS 3 Xrotation Yrotation Zrotation
			JOINT Spine2
			{
				OFFSET -0.372300 16.307602 -0.352600
				CHANNELS 3 Xrotation Yrotation Zrotation
				JOINT Neck
				{
					OFFSET -0.418800 17.814194 8.416900
					CHANNELS 3 Xrotation Yrotation Zrotation
					JOINT Head
					{
						OFFSET 0.000000 7.031097 3.806800
						CHANNELS 3 Xrotation Yrotation Zrotation
						JOINT HeadTop_End
						{
							OFFSET 0.000000 24.646606 12.978600
							CHANNELS 3 Xrotation Yrotation Zrotation
							End Site
							{
								OFFSET 0.000000 27.854965 0.000000
							}
						}
					}
				}
				JOINT LeftShoulder
				{
					OFFSET 16.952999 14.495407 -7.737500
					CHANNELS 3 Xrotation Yrotation Zrotation
					JOINT LeftArm
					{
						OFFSET 9.308998 -2.777710 0.208600
						CHANNELS 3 Xrotation Yrotation Zrotation
						JOINT LeftForeArm
						{
							OFFSET 29.972298 0.000000 0.000000
							CHANNELS 3 Xrotation Yrotation Zrotation
							JOINT LeftHand
							{
								OFFSET 26.026505 0.000000 0.000000
								CHANNELS 3 Xrotation Yrotation Zrotation
								JOINT LeftHandThumb1
								{
									OFFSET 12.240501 -7.147949 9.207150
									CHANNELS 3 Xrotation Yrotation Zrotation
									JOINT LeftHandThumb2
									{
										OFFSET 4.138618 -2.389435 2.389433
										CHANNELS 3 Xrotation Yrotation Zrotation
										JOINT LeftHandThumb3
										{
											OFFSET 2.726913 -1.574387 1.574386
											CHANNELS 3 Xrotation Yrotation Zrotation
											JOINT LeftHandThumb4
											{
												OFFSET 3.941010 -2.275345 2.275342
												CHANNELS 3 Xrotation Yrotation Zrotation
												End Site
												{
													OFFSET -0.005798 5.087799 0.009903
												}
											}
										}
									}
								}
								JOINT LeftHandIndex1
								{
									OFFSET 24.424698 -1.985611 5.953459
									CHANNELS 3 Xrotation Yrotation Zrotation
									JOINT LeftHandIndex2
									{
										OFFSET 6.426697 0.000000 0.000000
										CHANNELS 3 Xrotation Yrotation Zrotation
										JOINT LeftHandIndex3
										{
											OFFSET 5.337898 0.000000 0.000000
											CHANNELS 3 Xrotation Yrotation Zrotation
											JOINT LeftHandIndex4
											{
												OFFSET 4.409401 0.000000 0.000000
												CHANNELS 3 Xrotation Yrotation Zrotation
												End Site
												{
													OFFSET 0.000000 4.409363 0.014373
												}
											}
										}
									}
								}
								JOINT LeftHandMiddle1
								{
									OFFSET 23.810104 0.000000 0.000000
									CHANNELS 3 Xrotation Yrotation Zrotation
									JOINT LeftHandMiddle2
									{
										OFFSET 7.176498 0.000000 0.000000
										CHANNELS 3 Xrotation Yrotation Zrotation
										JOINT LeftHandMiddle3
										{
											OFFSET 6.774902 0.000000 0.000000
											CHANNELS 3 Xrotation Yrotation Zrotation
											JOINT LeftHandMiddle4
											{
												OFFSET 5.403328 0.000000 0.000000
												CHANNELS 3 Xrotation Yrotation Zrotation
												End Site
												{
													OFFSET -0.027702 5.403244 0.017414
												}
											}
										}
									}
								}
								JOINT LeftHandRing1
								{
									OFFSET 22.908401 -0.839279 -6.020567
									CHANNELS 3 Xrotation Yrotation Zrotation
									JOINT LeftHandRing2
									{
										OFFSET 6.337502 0.000000 0.000000
										CHANNELS 3 Xrotation Yrotation Zrotation
										JOINT LeftHandRing3
										{
											OFFSET 5.779297 0.000000 0.000000
											CHANNELS 3 Xrotation Yrotation Zrotation
											JOINT LeftHandRing4
											{
												OFFSET 4.965698 0.000000 0.000000
												CHANNELS 3 Xrotation Yrotation Zrotation
												End Site
												{
													OFFSET 0.000000 4.965668 0.016186
												}
											}
										}
									}
								}
								JOINT LeftHandPinky1
								{
									OFFSET 20.037003 -1.530319 -10.950146
									CHANNELS 3 Xrotation Yrotation Zrotation
									JOINT LeftHandPinky2
									{
										OFFSET 5.254700 0.000000 0.000000
										CHANNELS 3 Xrotation Yrotation Zrotation
										JOINT LeftHandPinky3
										{
											OFFSET 4.810204 0.000000 0.000000
											CHANNELS 3 Xrotation Yrotation Zrotation
											JOINT LeftHandPinky4
											{
												OFFSET 3.647202 0.000000 0.000000
												CHANNELS 3 Xrotation Yrotation Zrotation
												End Site
												{
													OFFSET 0.000000 3.647186 0.011889
												}
											}
										}
									}
								}
							}
						}
					}
				}
				JOINT RightShoulder
				{
					OFFSET -15.141001 14.495407 -7.737500
					CHANNELS 3 Xrotation Yrotation Zrotation
					JOINT RightArm
					{
						OFFSET -9.308998 -2.777710 0.208500
						CHANNELS 3 Xrotation Yrotation Zrotation
						JOINT RightForeArm
						{
							OFFSET -29.972300 0.000000 0.000000
							CHANNELS 3 Xrotation Yrotation Zrotation
							JOINT RightHand
							{
								OFFSET -26.026505 0.000000 0.000000
								CHANNELS 3 Xrotation Yrotation Zrotation
								JOINT RightHandThumb1
								{
									OFFSET -12.240601 -7.148026 9.207092
									CHANNELS 3 Xrotation Yrotation Zrotation
									JOINT RightHandThumb2
									{
										OFFSET -4.138618 -2.389435 2.389433
										CHANNELS 3 Xrotation Yrotation Zrotation
										JOINT RightHandThumb3
										{
											OFFSET -2.726974 -1.574417 1.574421
											CHANNELS 3 Xrotation Yrotation Zrotation
											JOINT RightHandThumb4
											{
												OFFSET -3.941010 -2.275345 2.275343
												CHANNELS 3 Xrotation Yrotation Zrotation
												End Site
												{
													OFFSET 0.005814 5.087799 0.009927
												}
											}
										}
									}
								}
								JOINT RightHandIndex1
								{
									OFFSET -24.424698 -1.985657 5.953444
									CHANNELS 3 Xrotation Yrotation Zrotation
									JOINT RightHandIndex2
									{
										OFFSET -6.426697 0.000000 0.000000
										CHANNELS 3 Xrotation Yrotation Zrotation
										JOINT RightHandIndex3
										{
											OFFSET -5.337898 0.000000 0.000000
											CHANNELS 3 Xrotation Yrotation Zrotation
											JOINT RightHandIndex4
											{
												OFFSET -4.409401 0.000000 0.000000
												CHANNELS 3 Xrotation Yrotation Zrotation
												End Site
												{
													OFFSET 0.000000 4.409363 0.014408
												}
											}
										}
									}
								}
								JOINT RightHandMiddle1
								{
									OFFSET -23.810097 0.000000 0.000000
									CHANNELS 3 Xrotation Yrotation Zrotation
									JOINT RightHandMiddle2
									{
										OFFSET -7.176498 0.000000 0.000000
										CHANNELS 3 Xrotation Yrotation Zrotation
										JOINT RightHandMiddle3
										{
											OFFSET -6.774902 0.000000 0.000000
											CHANNELS 3 Xrotation Yrotation Zrotation
											JOINT RightHandMiddle4
											{
												OFFSET -5.403328 0.000000 0.000000
												CHANNELS 3 Xrotation Yrotation Zrotation
												End Site
												{
													OFFSET 0.027702 5.403244 0.017457
												}
											}
										}
									}
								}
								JOINT RightHandRing1
								{
									OFFSET -22.908302 -0.839325 -6.020576
									CHANNELS 3 Xrotation Yrotation Zrotation
									JOINT RightHandRing2
									{
										OFFSET -6.337502 0.000000 0.000000
										CHANNELS 3 Xrotation Yrotation Zrotation
										JOINT RightHandRing3
										{
											OFFSET -5.779297 0.000000 0.000000
											CHANNELS 3 Xrotation Yrotation Zrotation
											JOINT RightHandRing4
											{
												OFFSET -4.965698 0.000000 0.000000
												CHANNELS 3 Xrotation Yrotation Zrotation
												End Site
												{
													OFFSET 0.000000 4.965668 0.016226
												}
											}
										}
									}
								}
								JOINT RightHandPinky1
								{
									OFFSET -20.037003 -1.530334 -10.950259
									CHANNELS 3 Xrotation Yrotation Zrotation
									JOINT RightHandPinky2
									{
										OFFSET -5.254700 0.000000 0.000000
										CHANNELS 3 Xrotation Yrotation Zrotation
										JOINT RightHandPinky3
										{
											OFFSET -4.810204 0.000000 0.000000
											CHANNELS 3 Xrotation Yrotation Zrotation
											JOINT RightHandPinky4
											{
												OFFSET -3.647202 0.000000 0.000000
												CHANNELS 3 Xrotation Yrotation Zrotation
												End Site
												{
													OFFSET 0.000000 3.647186 0.011917
												}
											}
										}
									}
								}
							}
						}
					}
				}
			}
		}
	}
	JOINT LeftUpLeg
	{
		OFFSET 15.427100 -6.655098 0.678600
		CHANNELS 3 Xrotation Yrotation Zrotation
		JOINT LeftLeg
		{
			OFFSET 4.081073 -39.591068 13.024000
			CHANNELS 3 Xrotation Yrotation Zrotation
			JOINT LeftFoot
			{
				OFFSET -4.081074 -37.707932 -15.979700
				CHANNELS 3 Xrotation Yrotation Zrotation
				JOINT LeftToeBase
				{
					OFFSET 5.346399 -15.068900 20.645000
					CHANNELS 3 Xrotation Yrotation Zrotation
					JOINT LeftToe_End
					{
						OFFSET 2.754700 0.931300 11.300900
						CHANNELS 3 Xrotation Yrotation Zrotation
						End Site
						{
							OFFSET 0.000000 11.669021 0.000000
						}
					}
				}
			}
		}
	}
	JOINT RightUpLeg
	{
		OFFSET -15.569500 -6.655098 0.678600
		CHANNELS 3 Xrotation Yrotation Zrotation
		JOINT RightLeg
		{
			OFFSET -4.081825 -39.591045 13.023800
			CHANNELS 3 Xrotation Yrotation Zrotation
			JOINT RightFoot
			{
				OFFSET 4.081824 -37.707954 -15.979600
				CHANNELS 3 Xrotation Yrotation Zrotation
				JOINT RightToeBase
				{
					OFFSET -5.346400 -15.068900 20.645000
					CHANNELS 3 Xrotation Yrotation Zrotation
					JOINT RightToe_End
					{
						OFFSET -2.754700 0.931300 11.300900
						CHANNELS 3 Xrotation Yrotation Zrotation
						End Site
						{
							OFFSET 0.000000 11.669021 0.000000
						}
					}
				}
			}
		}
	}
}
MOTION
Frames: 4
Frame Time: 0.033333
-4.699085 87.623413 -3.085180 -13.967155 6.306472 -3.021310 4.445289 0.017457 3.410840 8.907226 1.224749 1.800837 8.907228 1.224745 1.800838 -11.901576 -1.076489 -0.648977 5.623489 -5.995690 -0.757038 -0.000000 0.000000 0.000000 3.622082 2.746822 0.791961 6.583480 -26.222462 -68.383950 -0.187474 -25.866495 -0.000188 -15.512616 -7.331659 9.040256 -3.585669 6.501890 9.429868 2.607166 6.629789 1.555729 0.000000 -0.000000 0.000004 -0.000000 -0.000001 0.000004 0.070626 -0.510173 -26.039676 0.124200 0.878185 -24.537895 -0.000003 0.000000 -0.000000 -0.000003 -0.000000 -0.000001 -0.517699 -0.465809 -26.331624 -0.498515 -1.589800 -26.480923 0.000001 -0.000001 -0.000003 -0.000001 -0.000001 -0.000005 -5.877547 1.318794 -27.102368 -2.267041 -4.642803 -57.723097 -0.000001 -0.000000 -0.000001 0.000001 0.000001 0.000002 -3.646106 3.010127 -33.514225 -4.092380 -8.987259 -66.994648 0.000005 -0.000000 0.000001 0.000002 0.000000 -0.000001 6.023166 -1.689182 -5.578992 6.661545 15.934527 73.154331 -0.209023 31.456586 -0.005676 -13.157635 -2.679250 -6.795026 -5.481717 -3.709468 -3.794180 2.717112 -7.521269 -2.198774 0.000002 0.000003 -0.000010 -0.000001 0.000000 0.000001 -0.891208 -2.291887 28.725341 0.242455 -1.402058 24.976200 0.000002 0.000001 -0.000002 0.000001 -0.000001 -0.000004 -1.633986 -0.798100 41.689149 -15.549791 -3.328433 12.057213 -0.000000 0.000000 0.000011 -0.000000 0.000000 0.000002 -1.785519 -1.233827 45.649952 -0.182553 1.993704 14.110764 -0.000006 -0.000000 0.000003 -0.000001 0.000001 0.000000 -2.320427 -3.035227 51.748447 -2.908196 8.061240 31.382517 -0.000000 0.000000 0.000000 -0.000000 0.000001 0.000002 -13.283919 3.053109 12.581281 55.828955 -2.338846 -2.412405 4.879316 -5.321480 -3.748947 -33.515588 -2.247484 3.716297 0.000000 -0.000001 -0.000000 -0.593725 -11.024693 6.019736 33.700461 -1.015132 0.932038 -18.639520 0.369912 -4.743876 -5.384509 -0.170438 0.416724 0.000000 0.000000 0.000000 
-4.872498 87.663803 -0.593853 -14.552112 6.170420 -3.425076 4.244191 0.158041 3.460893 8.515799 1.409586 1.743105 8.515800 1.409583 1.743106 -11.734091 -0.658926 -0.829328 6.063302 -5.618097 -0.729635 -0.000000 -0.000000 -0.000000 3.680140 3.347882 -0.680768 6.849263 -26.574280 -67.373751 -0.186983 -26.031801 -0.000521 -14.039695 -7.351386 9.611626 -4.164010 6.002583 9.509847 2.739820 6.496599 1.465498 -0.000000 -0.000000 0.000004 0.000001 -0.000000 0.000002 -0.059638 -0.609905 -25.981582 0.123254 0.878957 -24.640027 0.000002 -0.000001 -0.000000 -0.000001 -0.000000 0.000002 -0.599847 -0.515292 -26.430979 -0.506170 -1.610196 -26.721968 -0.000001 -0.000002 0.000003 -0.000000 0.000001 0.000001 -5.757351 1.369669 -27.704811 -2.275598 -4.643767 -57.831519 0.000002 -0.000001 0.000000 -0.000001 0.000000 0.000003 -3.482484 2.927881 -34.236405 -4.092985 -8.968265 -67.000276 0.000004 -0.000000 -0.000001 0.000003 0.000000 -0.000001 5.906356 -1.973999 -2.986094 6.877138 16.511316 71.011885 -0.197110 34.407396 -0.004006 -12.512246 -4.155369 -6.373346 -5.206992 -3.774972 -3.556043 2.641028 -7.599616 -2.236085 0.000003 0.000002 -0.000009 -0.000001 0.000000 0.000001 -0.845307 -2.224556 29.013083 0.243029 -1.405141 25.052555 0.000002 -0.000001 -0.000004 0.000001 -0.000002 -0.000002 -1.671052 -0.761759 41.719011 -15.438338 -3.336616 12.242028 -0.000001 -0.000000 0.000012 0.000000 -0.000000 -0.000003 -1.791515 -1.190473 45.766608 -0.190730 2.015507 14.339803 -0.000004 0.000000 0.000004 0.000001 -0.000000 0.000000 -2.278357 -3.031470 52.039263 -2.924641 8.094080 31.652367 0.000002 -0.000000 0.000001 -0.000000 -0.000001 -0.000001 -16.991236 4.128776 13.458950 56.468982 -3.475396 -2.541622 2.638521 0.249830 -4.221170 -20.858221 -5.003215 3.520789 0.000000 0.000000 0.000000 2.541178 -11.417315 6.638606 33.018118 -0.580739 1.005283 -19.610083 0.829642 -4.934214 -4.896205 -0.254767 0.453800 0.000000 0.000000 0.000000 
-4.947925 87.693466 1.923878 -14.926605 5.848100 -3.760525 4.070815 0.317474 3.412065 8.179403 1.549739 1.652621 8.179402 1.549741 1.652621 -12.177438 -0.056121 -1.078158 6.555879 -5.090544 -0.577246 -0.000000 -0.000000 0.000000 3.778533 4.253766 -2.633204 6.934364 -26.842917 -66.000589 -0.187345 -25.622486 -0.000289 -13.247721 -7.554588 10.273357 -4.543823 5.595235 9.476940 2.838962 6.414470 1.400487 0.000001 0.000001 0.000003 0.000000 0.000001 0.000001 -0.208515 -0.732489 -25.818228 0.121401 0.879039 -24.682968 0.000002 -0.000000 -0.000001 0.000001 -0.000000 0.000000 -0.677539 -0.562184 -26.604342 -0.514794 -1.632937 -26.993300 0.000000 -0.000002 -0.000002 -0.000001 -0.000001 -0.000000 -5.649969 1.414515 -28.439410 -2.289490 -4.647292 -58.007472 -0.000001 -0.000000 -0.000003 -0.000001 -0.000000 0.000001 -3.236757 2.844305 -35.069521 -4.096023 -8.949114 -67.023676 -0.000001 0.000000 -0.000001 -0.000002 0.000000 0.000000 5.805995 -2.153862 -0.910381 7.228443 16.957497 69.484068 -0.189523 36.693945 -0.001926 -11.925702 -4.817965 -6.195496 -4.972173 -3.822072 -3.365431 2.563795 -7.679557 -2.274103 0.000001 0.000003 -0.000007 -0.000000 0.000000 -0.000000 -0.795024 -2.169036 29.343852 0.243226 -1.407790 25.114995 0.000001 0.000001 -0.000004 0.000002 -0.000000 -0.000000 -1.712649 -0.719566 41.774062 -15.326656 -3.340097 12.409377 -0.000001 0.000000 0.000013 -0.000001 -0.000000 -0.000000 -1.794150 -1.144531 45.873876 -0.199365 2.038352 14.579418 0.000001 -0.000001 0.000001 -0.000000 0.000001 0.000003 -2.243719 -3.026132 52.315803 -2.932226 8.120858 31.856859 0.000003 -0.000001 -0.000000 -0.000000 -0.000001 -0.000001 -20.709617 5.206661 14.022288 56.602287 -4.384546 -2.489266 -0.346423 5.172527 -2.925996 -4.861917 -6.610704 3.431437 0.000002 -0.000002 0.000000 5.526681 -11.965217 6.986563 32.197317 -0.106698 1.107990 -20.400027 1.631043 -4.579443 -4.574517 -0.359450 0.498561 0.000000 -0.000000 -0.000000 
-4.920711 87.775116 4.439671 -15.146769 5.334713 -4.035118 3.921235 0.497529 3.231718 7.888333 1.647748 1.535853 7.888336 1.647749 1.535854 -13.055500 0.652188 -1.395071 7.068230 -4.502707 -0.278049 -0.000000 -0.000000 -0.000000 3.911870 5.212665 -4.655120 6.645645 -26.664934 -64.960010 -0.188759 -24.897904 0.000098 -13.077346 -7.282688 10.670723 -4.763913 5.266388 9.356353 2.908735 6.377237 1.357429 0.000001 0.000002 0.000000 -0.000000 -0.000000 -0.000002 -0.461318 -0.964843 -25.724670 0.119130 0.878787 -24.698676 -0.000002 0.000000 -0.000001 -0.000002 0.000000 -0.000002 -0.747464 -0.604128 -26.825915 -0.524407 -1.657910 -27.293989 -0.000001 -0.000000 -0.000002 0.000001 -0.000003 0.000001 -5.554901 1.441355 -28.897301 -2.309165 -4.653578 -58.256726 0.000001 -0.000000 -0.000002 0.000002 0.000000 0.000000 -2.960832 2.733312 -36.068173 -4.101906 -8.929853 -67.067943 0.000002 0.000000 -0.000001 0.000001 0.000000 -0.000001 5.725254 -2.157496 0.078946 7.556529 17.113478 69.140974 -0.186716 38.142088 0.000330 -11.418463 -4.503425 -6.217156 -4.721421 -3.853017 -3.147270 2.485953 -7.760198 -2.312746 0.000001 0.000000 -0.000011 -0.000001 0.000000 0.000001 -0.742452 -2.120423 29.689712 0.243241 -1.410179 25.169286 0.000003 0.000000 -0.000000 0.000002 -0.000001 -0.000002 -1.756624 -0.674442 41.846336 -15.214120 -3.341309 12.570611 0.000001 -0.000000 0.000013 0.000001 -0.000000 0.000001 -1.794651 -1.096990 45.973611 -0.208035 2.060968 14.817674 -0.000002 -0.000001 0.000001 0.000002 -0.000001 -0.000001 -2.206476 -3.030600 52.529346 -2.933938 8.143661 32.018499 -0.000000 -0.000001 0.000002 -0.000001 -0.000000 0.000001 -24.229270 5.943804 14.511476 55.411528 -5.242522 -2.394815 -2.852299 7.875935 -1.829621 2.158229 -6.374367 3.191443 0.000001 0.000001 -0.000000 8.385647 -12.567117 7.055696 31.159986 0.369957 1.231568 -20.935194 2.685027 -3.806803 -4.620896 -0.626087 0.583420 0.000000 0.000000 -0.000000 
